<?xml version="1.0" encoding="utf-8"?>
<svg viewBox="0 0 500 500" xmlns="http://www.w3.org/2000/svg">
  <path style="fill: rgb(216, 216, 216); stroke: rgb(0, 0, 0);" d="M 69.671 79.215 C 88.576 60.309 112.37 46.544 136.855 35.899 C 144.026 32.781 143.166 33.247 149.231 33.247 C 151.294 33.247 154.497 31.402 155.419 33.247 C 162.302 47.012 147.027 67.203 142.159 78.331 C 128.321 109.961 110.154 139.582 96.191 171.151 C 88.455 188.64 80.327 207.274 73.207 225.075 C 35.63 319.016 89.913 189.697 67.903 239.219 C 67.031 241.18 66.135 247.553 66.135 245.407 C 66.135 240.258 84.272 222.079 85.583 220.655 C 101.393 203.49 117.949 186.991 135.087 171.151 C 195.509 115.307 267.691 68.163 341.06 31.479 C 342.641 30.688 341.367 35.042 341.06 36.783 C 340.427 40.372 339.391 43.881 338.408 47.391 C 334.617 60.93 330.372 74.701 326.032 88.055 C 309.628 138.527 293.791 189.134 273.876 238.335 C 268.362 251.958 263.38 266.582 257.08 279.883 C 199.4 401.652 287.782 211.467 252.66 290.491 C 251.463 293.184 244.409 297.563 247.355 297.563 C 249.733 297.563 251.204 292.935 251.775 292.259 C 257.564 285.418 264.111 279.255 270.34 272.811 C 287.832 254.716 306.963 232.622 329.568 220.655 C 334.241 218.181 345.62 212.327 351.668 215.351 C 353.408 216.221 352.552 220.913 352.552 222.423 C 352.552 233.435 350.528 240.819 347.248 251.595 C 337.272 284.373 327.024 316.946 317.192 349.72 C 314.441 358.89 310.449 367.296 307.468 376.24 C 307.402 376.438 305.7 382.428 305.7 382.428 C 305.7 382.428 309.736 373.152 312.772 369.168 C 327.443 349.912 316.085 367.089 334.872 344.416 C 357.493 317.115 382.713 294.363 410.896 272.811 C 414.261 270.238 434.601 256.735 440.952 263.087 C 443.036 265.171 441.667 269.069 440.952 271.927 C 438.104 283.322 432.501 296.298 428.576 307.287 C 414.449 346.845 399.721 386.033 379.956 423.092 C 372.124 437.777 366.382 462.359 348.132 464.64 C 328.354 467.112 309.543 459.574 290.672 455.8 C 279.339 453.533 266.553 451.11 256.196 445.192 C 242.022 437.093 229.503 418.499 219.067 408.064 C 216.329 405.326 219.067 378.259 219.067 377.124 C 219.067 346.522 218.204 315.657 221.719 285.187 C 224.4 261.958 230.013 238.245 231.443 215.351 C 231.48 214.77 235.075 201.303 234.095 200.323 C 231.766 197.994 227.371 200.728 224.371 202.091 C 216.165 205.822 208.971 211.495 201.387 216.235 C 172.706 234.161 145.943 255.663 119.175 276.347 C 111.744 282.09 104.686 288.896 96.191 293.143 C 90.588 295.945 70.097 300.429 62.599 296.679 C 59.621 295.19 59.306 291.261 58.179 288.723 C 52.188 275.246 50.74 258.354 49.339 243.639 C 47.122 220.364 50.194 195.385 51.991 172.035 C 52.761 162.017 51.079 150.971 52.875 141.095 C 56.459 121.381 60.831 103.418 60.831 82.751"/>
</svg>